<svg width="0" height="0" class="hidden">
  <symbol version="1.1" id="cpp" xmlns="http://www.w3.org/2000/svg" xmlns:xlink="http://www.w3.org/1999/xlink" x="0px" y="0px" enable-background="new 0 0 306 344.35" xml:space="preserve" viewBox="0 0 306 344.35">
    <path fill="#00599C" d="M302.107,258.262c2.401-4.159,3.893-8.845,3.893-13.053V99.14c0-4.208-1.49-8.893-3.892-13.052L153,172.175
	L302.107,258.262z"></path>
    <path fill="#004482" d="M166.25,341.193l126.5-73.034c3.644-2.104,6.956-5.737,9.357-9.897L153,172.175L3.893,258.263
	c2.401,4.159,5.714,7.793,9.357,9.896l126.5,73.034C147.037,345.401,158.963,345.401,166.25,341.193z"></path>
    <path fill="#659AD2" d="M302.108,86.087c-2.402-4.16-5.715-7.793-9.358-9.897L166.25,3.156c-7.287-4.208-19.213-4.208-26.5,0
	L13.25,76.19C5.962,80.397,0,90.725,0,99.14v146.069c0,4.208,1.491,8.894,3.893,13.053L153,172.175L302.108,86.087z"></path>
    <g>
      <path fill="#FFFFFF" d="M153,274.175c-56.243,0-102-45.757-102-102s45.757-102,102-102c36.292,0,70.139,19.53,88.331,50.968
		l-44.143,25.544c-9.105-15.736-26.038-25.512-44.188-25.512c-28.122,0-51,22.878-51,51c0,28.121,22.878,51,51,51
		c18.152,0,35.085-9.776,44.191-25.515l44.143,25.543C223.142,254.644,189.294,274.175,153,274.175z"></path>
    </g>
    <g>
      <polygon fill="#FFFFFF" points="255,166.508 243.666,166.508 243.666,155.175 232.334,155.175 232.334,166.508 221,166.508 
		221,177.841 232.334,177.841 232.334,189.175 243.666,189.175 243.666,177.841 255,177.841 	"></polygon>
    </g>
    <g>
      <polygon fill="#FFFFFF" points="297.5,166.508 286.166,166.508 286.166,155.175 274.834,155.175 274.834,166.508 263.5,166.508 
		263.5,177.841 274.834,177.841 274.834,189.175 286.166,189.175 286.166,177.841 297.5,177.841 	"></polygon>
    </g>
  </symbol>
  <symbol fill="none" xmlns="http://www.w3.org/2000/svg" viewBox="0 0 124 141.53" id="css">
    <path d="M10.383 126.892L0 0l124 .255-10.979 126.637-50.553 14.638z" fill="#1b73ba"></path>
    <path d="M62.468 129.275V12.085l51.064.17-9.106 104.85z" fill="#1c88c7"></path>
    <path d="M100.851 27.064H22.298l2.128 15.318h37.276l-36.68 15.745 2.127 14.808h54.043l-1.958 20.68-18.298 3.575-16.595-4.255-1.277-11.745H27.83l2.042 24.426 32.681 9.106 31.32-9.957 4-47.745H64.765l36.085-14.978z" fill="#fff"></path>
  </symbol>
  <symbol xmlns="http://www.w3.org/2000/svg" viewBox="0 0 271.7 179.7" id="cuda">
    <path d="M101.3 53.6V37.4c1.6-.1 3.2-.2 4.8-.2 44.4-1.4 73.5 38.2 73.5 38.2S148.2 119 114.5 119c-4.5 0-8.9-.7-13.1-2.1V67.7c17.3 2.1 20.8 9.7 31.1 27l23.1-19.4s-16.9-22.1-45.3-22.1c-3-.1-6 .1-9 .4m0-53.6v24.2l4.8-.3c61.7-2.1 102 50.6 102 50.6s-46.2 56.2-94.3 56.2c-4.2 0-8.3-.4-12.4-1.1v15c3.4.4 6.9.7 10.3.7 44.8 0 77.2-22.9 108.6-49.9 5.2 4.2 26.5 14.3 30.9 18.7-29.8 25-99.3 45.1-138.7 45.1-3.8 0-7.4-.2-11-.6v21.1h170.2V0H101.3zm0 116.9v12.8c-41.4-7.4-52.9-50.5-52.9-50.5s19.9-22 52.9-25.6v14h-.1c-17.3-2.1-30.9 14.1-30.9 14.1s7.7 27.3 31 35.2M27.8 77.4s24.5-36.2 73.6-40V24.2C47 28.6 0 74.6 0 74.6s26.6 77 101.3 84v-14c-54.8-6.8-73.5-67.2-73.5-67.2z" fill="#76b900"></path>
  </symbol>
  <symbol xmlns="http://www.w3.org/2000/svg" preserveAspectRatio="xMidYMid" viewBox="0 0 256 289" id="dynamodb">
    <path d="M165.258 288.501h3.508l57.261-28.634.953-1.347V29.964l-.953-1.354L168.766 0h-3.551l.043 288.501" fill="#5294CF"></path>
    <path d="M90.741 288.501h-3.557l-57.212-28.634-1.161-1.997-.589-226.742 1.75-2.518L87.184 0h3.601l-.044 288.501" fill="#1F5B98"></path>
    <path d="M87.285 0h81.426v288.501H87.285V0z" fill="#2D72B8"></path>
    <path d="M256 137.769l-1.935-.429-27.628-2.576-.41.204-57.312-2.292h-81.43l-57.313 2.292V91.264l-.06.032.06-.128 57.313-13.28h81.43l57.312 13.28 21.069 11.199v-7.2l8.904-.974-.922-1.798-28.192-20.159-.859.279-57.312-17.759h-81.43L29.972 72.515V28.61L0 63.723v30.666l.232-.168 8.672.946v7.348L0 107.28v30.513l.232-.024 8.672.128v12.807l-7.482.112L0 150.68v30.525l8.904 4.788v7.433l-8.531.942-.373-.28v30.661l29.972 35.118v-43.901l57.313 17.759h81.43l57.481-17.811.764.335 27.821-19.862 1.219-1.979-8.904-.982v-7.284l-1.167-.466-19.043 10.265-.69 1.44-57.481 13.203v.016h-81.43v-.016l-57.313-13.259v-43.864l57.313 2.284v.056h81.43l57.312-2.34 1.305.6 26.779-2.306 1.889-.923-8.904-.128v-12.807l8.904-.128" fill="#1A476F"></path>
    <path d="M226.027 215.966v43.901L256 224.749v-30.461l-29.8 21.626-.173.052M226.027 197.421l.173-.04 29.8-16.028v-30.649l-29.973 2.757v43.96M226.2 91.208l-.173-.04v43.8L256 137.769v-30.634l-29.8-15.927M226.2 72.687L256 94.193V63.731L226.027 28.61v43.905l.173.06v.112" fill="#2D72B8"></path>
  </symbol>
  <symbol xmlns="http://www.w3.org/2000/svg" viewBox="0 0 512 149" id="express">
    <path d="M3.332 115.629V58.648h71.144v-3.333H3.332V3.332h75.642V0H0v118.961h79.64v-3.332H3.333zm140.455-82.307l-29.49 38.821-28.825-38.82H81.14l31.157 41.32L78.14 118.96h3.999l32.156-41.82 32.323 41.82h4.165l-34.322-44.319 31.323-41.32h-3.998zm16.994 114.963V94.97h.333c2 7.775 5.943 14.023 11.83 18.744 5.887 4.72 13.384 7.081 22.492 7.081 5.887 0 11.108-1.194 15.662-3.582s8.358-5.637 11.413-9.747c3.054-4.11 5.387-8.886 6.998-14.329 1.61-5.442 2.416-11.163 2.416-17.16 0-6.443-.834-12.386-2.5-17.828-1.666-5.443-4.082-10.164-7.247-14.162-3.166-3.999-6.998-7.11-11.497-9.33-4.498-2.222-9.58-3.333-15.245-3.333-4.332 0-8.358.639-12.079 1.916-3.721 1.278-7.025 3.082-9.913 5.415a36.674 36.674 0 0 0-7.498 8.247c-2.11 3.166-3.721 6.637-4.832 10.414h-.333V33.322h-3.332v114.963h3.332zm34.655-30.657c-10.44 0-18.827-3.582-25.158-10.746-6.331-7.164-9.497-17.467-9.497-30.907 0-5.554.778-10.83 2.333-15.828 1.555-4.998 3.804-9.386 6.747-13.162 2.944-3.777 6.582-6.776 10.913-8.997 4.332-2.222 9.22-3.333 14.662-3.333 5.554 0 10.414 1.111 14.579 3.333 4.165 2.221 7.609 5.248 10.33 9.08s4.776 8.22 6.165 13.162c1.388 4.943 2.082 10.191 2.082 15.745 0 4.999-.638 9.97-1.916 14.912-1.277 4.943-3.249 9.386-5.915 13.33-2.665 3.942-6.08 7.163-10.246 9.663-4.166 2.499-9.192 3.748-15.079 3.748zm54.816 1.333V70.477c0-4.665.666-9.22 2-13.662 1.332-4.443 3.387-8.359 6.164-11.746 2.777-3.388 6.303-6.054 10.58-7.998 4.276-1.944 9.358-2.749 15.245-2.416v-3.332c-5.11-.11-9.58.444-13.412 1.666-3.833 1.222-7.137 2.888-9.914 4.999-2.777 2.11-4.998 4.581-6.664 7.414a33.15 33.15 0 0 0-3.666 9.08h-.333v-21.16h-3.332v85.64h3.332zm38.154-42.153h71.643c.223-5.887-.36-11.551-1.749-16.994-1.388-5.443-3.61-10.275-6.664-14.495-3.055-4.221-6.998-7.609-11.83-10.164-4.832-2.555-10.58-3.832-17.244-3.832-4.777 0-9.442 1-13.996 3-4.554 1.999-8.553 4.914-11.996 8.746-3.443 3.832-6.22 8.525-8.33 14.08-2.11 5.553-3.166 11.884-3.166 18.993 0 6.331.722 12.246 2.166 17.744 1.444 5.498 3.665 10.275 6.664 14.329 3 4.054 6.86 7.192 11.58 9.413 4.72 2.222 10.413 3.277 17.078 3.166 9.774 0 17.994-2.75 24.658-8.247 6.665-5.499 10.608-13.246 11.83-23.243h-3.332c-1.444 9.442-5.138 16.523-11.08 21.243-5.943 4.721-13.412 7.081-22.41 7.081-6.109 0-11.274-1.055-15.495-3.165-4.22-2.11-7.664-4.999-10.33-8.664-2.665-3.666-4.637-7.97-5.914-12.913-1.278-4.942-1.972-10.302-2.083-16.078zm68.311-3.332h-68.31c.332-5.998 1.443-11.385 3.331-16.161 1.889-4.777 4.36-8.859 7.415-12.246 3.054-3.388 6.609-5.97 10.663-7.748 4.054-1.777 8.414-2.666 13.079-2.666 5.554 0 10.44 1.028 14.662 3.083 4.22 2.055 7.747 4.86 10.58 8.414 2.832 3.554 4.97 7.692 6.414 12.412 1.444 4.721 2.166 9.692 2.166 14.912zm72.477-14.828h3.332c0-9.553-2.777-16.495-8.33-20.827-5.555-4.332-13.108-6.498-22.66-6.498-5.332 0-9.83.667-13.496 2-3.665 1.332-6.664 3.054-8.997 5.164-2.332 2.11-3.998 4.443-4.998 6.998-1 2.555-1.5 4.999-1.5 7.331 0 4.665.833 8.386 2.5 11.163 1.666 2.777 4.276 4.943 7.83 6.498 2.444 1.11 5.22 2.11 8.331 3 3.11.888 6.72 1.832 10.83 2.831 3.665.89 7.275 1.778 10.83 2.666 3.554.889 6.692 2.083 9.413 3.582 2.722 1.5 4.943 3.416 6.665 5.749 1.721 2.332 2.582 5.387 2.582 9.163 0 3.666-.86 6.776-2.582 9.33a20.815 20.815 0 0 1-6.581 6.249c-2.666 1.61-5.638 2.776-8.914 3.498-3.277.722-6.47 1.083-9.58 1.083-10.108 0-17.856-2.249-23.243-6.747-5.387-4.499-8.08-11.58-8.08-21.244h-3.333c0 10.775 2.916 18.661 8.747 23.66 5.832 4.998 14.468 7.497 25.909 7.497 3.665 0 7.358-.417 11.08-1.25 3.72-.833 7.053-2.193 9.996-4.082a22.592 22.592 0 0 0 7.164-7.33c1.833-3 2.75-6.665 2.75-10.997 0-4.11-.806-7.442-2.416-9.997-1.611-2.554-3.721-4.665-6.332-6.331-2.61-1.666-5.553-2.971-8.83-3.915a516.08 516.08 0 0 0-9.914-2.75 1726.675 1726.675 0 0 0-12.246-3.165c-3.498-.889-6.747-1.944-9.746-3.166-2.888-1.222-5.193-2.971-6.915-5.248-1.722-2.277-2.582-5.526-2.582-9.747 0-.777.222-2.166.666-4.165.444-2 1.5-4.027 3.166-6.082 1.666-2.054 4.22-3.887 7.664-5.498 3.443-1.61 8.164-2.416 14.162-2.416 4.11 0 7.858.445 11.246 1.333 3.388.889 6.304 2.305 8.747 4.249 2.444 1.944 4.332 4.415 5.665 7.414 1.333 3 2 6.665 2 10.997zm77.141 0h3.332c0-9.553-2.776-16.495-8.33-20.827-5.554-4.332-13.107-6.498-22.66-6.498-5.331 0-9.83.667-13.495 2-3.666 1.332-6.665 3.054-8.997 5.164-2.333 2.11-3.999 4.443-4.999 6.998-1 2.555-1.499 4.999-1.499 7.331 0 4.665.833 8.386 2.5 11.163 1.665 2.777 4.276 4.943 7.83 6.498 2.444 1.11 5.22 2.11 8.33 3 3.11.888 6.72 1.832 10.83 2.831 3.666.89 7.276 1.778 10.83 2.666 3.555.889 6.692 2.083 9.414 3.582 2.721 1.5 4.943 3.416 6.664 5.749 1.722 2.332 2.583 5.387 2.583 9.163 0 3.666-.861 6.776-2.583 9.33a20.815 20.815 0 0 1-6.58 6.249c-2.667 1.61-5.638 2.776-8.915 3.498-3.276.722-6.47 1.083-9.58 1.083-10.108 0-17.855-2.249-23.242-6.747-5.388-4.499-8.081-11.58-8.081-21.244h-3.332c0 10.775 2.915 18.661 8.747 23.66 5.831 4.998 14.467 7.497 25.908 7.497 3.666 0 7.359-.417 11.08-1.25 3.72-.833 7.053-2.193 9.997-4.082a22.592 22.592 0 0 0 7.164-7.33c1.833-3 2.749-6.665 2.749-10.997 0-4.11-.805-7.442-2.416-9.997-1.61-2.554-3.72-4.665-6.331-6.331-2.61-1.666-5.554-2.971-8.83-3.915a516.071 516.071 0 0 0-9.914-2.75 1726.65 1726.65 0 0 0-12.246-3.165c-3.499-.889-6.748-1.944-9.747-3.166-2.888-1.222-5.193-2.971-6.914-5.248-1.722-2.277-2.583-5.526-2.583-9.747 0-.777.222-2.166.667-4.165.444-2 1.5-4.027 3.165-6.082 1.666-2.054 4.221-3.887 7.664-5.498 3.444-1.61 8.164-2.416 14.163-2.416 4.11 0 7.858.445 11.246 1.333 3.388.889 6.303 2.305 8.747 4.249 2.444 1.944 4.332 4.415 5.665 7.414 1.333 3 2 6.665 2 10.997z" fill="#222"></path>
  </symbol>
  <symbol xmlns="http://www.w3.org/2000/svg" viewBox="0 0 32 32" id="git">
    <path d="M31.396 14.575L17.425.604a2.06 2.06 0 0 0-2.914 0l-2.9 2.9 3.68 3.68c.856-.3 1.836-.095 2.518.587a2.45 2.45 0 0 1 .581 2.533l3.547 3.547c.858-.296 1.848-.105 2.533.582a2.45 2.45 0 1 1-3.469 3.468c-.72-.72-.898-1.78-.534-2.667l-3.308-3.308v8.705a2.5 2.5 0 0 1 .65.464 2.45 2.45 0 1 1-3.468 3.468 2.45 2.45 0 0 1 0-3.468c.237-.236.5-.415.803-.535v-8.786c-.292-.12-.566-.297-.803-.535a2.45 2.45 0 0 1-.528-2.681l-3.63-3.628-9.58 9.57a2.06 2.06 0 0 0 0 2.915l13.972 13.97a2.06 2.06 0 0 0 2.914 0L31.396 17.5a2.06 2.06 0 0 0 0-2.915" fill="#f03c2e"></path>
  </symbol>
  <symbol xmlns="http://www.w3.org/2000/svg" viewBox="15.7 3.6 94.4 121.6" id="go">
    <path clip-rule="evenodd" d="m21.1 68.7c.2 3.5 3.7 1.9 5.3.8 1.5-1.1 2-.2 2.1-2.3.1-1.4.2-2.7.2-4.1-2.3-.2-4.8.3-6.7 1.7-.9.7-2.8 3-.9 3.9" fill="#f6d2a2" fill-rule="evenodd"></path>
    <path d="m23 71.2c-.7 0-2-.3-2.2-2.3-.6-.4-.8-.9-.8-1.2-.1-1.2 1.2-2.6 1.9-3.1 1.6-1.2 3.7-1.8 5.9-1.8h1.3v.3c.1 1.1 0 2.2-.1 3.2 0 .3 0 .6-.1.9-.1 1.5-.4 1.7-1.1 2-.3.1-.6.2-1.1.6-.5.3-2.2 1.4-3.7 1.4zm4.8-7.8c-2.1 0-4 .6-5.5 1.7-.7.5-1.7 1.7-1.6 2.5 0 .3.2.6.6.8l.2.1v.2c.1 1.6.9 1.8 1.5 1.8 1 0 2.4-.7 3.3-1.3.6-.4 1-.5 1.3-.6.5-.2.6-.2.7-1.4 0-.3 0-.6.1-.9.1-.9.1-1.9.1-2.8-.3-.1-.5-.1-.7-.1z"></path>
    <path clip-rule="evenodd" d="m21.1 68.7c.5-.2 1.1-.3 1.4-.8" fill="#c6b198" fill-rule="evenodd"></path>
    <path d="m21.1 69c-.1 0-.3-.1-.3-.2-.1-.2 0-.4.2-.4.1 0 .2-.1.2-.1.4-.2.8-.3 1-.6.1-.1.3-.2.5-.1.1.1.2.3.1.5-.4.5-.9.7-1.3.8l-.2.1z"></path>
    <path clip-rule="evenodd" d="m29.3 26.4c-13.6-3.8-3.5-21.1 7.4-14z" fill="#6ad7e5" fill-rule="evenodd"></path>
    <path d="m29.5 26.8-.3-.1c-7-2-6.9-7-6.7-8.5.5-3.8 4.1-7.8 8.9-7.8 1.9 0 3.7.6 5.5 1.8l.3.2zm1.9-15.7c-4.5 0-7.8 3.7-8.3 7.2-.5 3.6 1.7 6.4 6 7.7l7.1-13.5c-1.5-.9-3.1-1.4-4.8-1.4z"></path>
    <path clip-rule="evenodd" d="m89.6 11.1c10.7-7.5 20.5 9.5 8 13.8z" fill="#6ad7e5" fill-rule="evenodd"></path>
    <path d="m97.5 25.3-8.3-14.3.3-.2c1.9-1.3 3.8-2 5.7-2 4.6 0 7.9 3.8 8.6 7.5.3 1.5.6 6.6-6 8.8zm-7.4-14 7.7 13.3c3.9-1.4 5.9-4.4 5.3-8-.6-3.4-3.7-6.9-7.9-6.9-1.7-.1-3.4.4-5.1 1.6z"></path>
    <path clip-rule="evenodd" d="m92 112.3c2.7 1.7 7.7 6.8 3.6 9.3-3.9 3.6-6.1-4-9.6-5 1.5-2 3.4-3.9 6-4.3" fill="#f6d2a2" fill-rule="evenodd"></path>
    <path d="m93.5 122.9c-1.6 0-3-1.6-4.2-3.1-1.1-1.2-2.2-2.5-3.4-2.9l-.5-.1.3-.4c1.2-1.7 3.2-3.9 6.2-4.4h.1l.1.1c1.7 1.1 5.4 4.2 5.3 7.1 0 1.1-.6 2-1.7 2.7-.7.7-1.4 1-2.2 1zm-7-6.5c1.2.5 2.2 1.8 3.2 2.9 1.2 1.5 2.4 2.8 3.7 2.8.6 0 1.2-.3 1.8-.9h.1c.9-.6 1.4-1.3 1.4-2.2 0-2.3-2.9-5.2-4.9-6.5-1.8.5-3.6 1.7-5.3 3.9zm9.1 5.5c-.1 0-.2-.1-.3-.2-.2-.4-.4-.9-.5-1.3-.3-.8-.6-1.6-1.2-2.2-.1-.1-.1-.3 0-.5.1-.1.3-.1.5 0 .7.7 1.1 1.6 1.4 2.5l.5 1.2c.1.2 0 .4-.1.5z"></path>
    <path clip-rule="evenodd" d="m43.2 118.1c-3.2.5-5 3.4-7.7 4.9-2.5 1.5-3.5-.5-3.7-.9-.4-.2-.4.2-1-.4-2.3-3.7 2.4-6.4 4.9-8.2 3.5-.8 5.7 2.2 7.5 4.6" fill="#f6d2a2" fill-rule="evenodd"></path>
    <path d="m33.8 123.8c-1.3 0-2-1.1-2.2-1.5h-.1c-.3 0-.5-.1-.9-.5v-.1c-2.2-3.5 1.6-6.2 4.1-8l.9-.6h.2c.4-.1.7-.1 1.1-.1 3 0 4.9 2.6 6.5 4.7l.5.7-.6.1c-1.9.3-3.3 1.5-4.7 2.7-.9.8-1.8 1.5-2.8 2.1-.8.3-1.4.5-2 .5zm-2.2-2.1c.1 0 .2 0 .4.1h.1l.1.1c.2.3.7 1.2 1.7 1.2.5 0 1-.2 1.5-.5 1-.5 1.9-1.3 2.7-2 1.3-1.1 2.7-2.3 4.5-2.8-1.5-2-3.3-4.2-5.8-4.2-.3 0-.6 0-.9.1l-.8.6c-2.6 1.8-5.8 4.1-3.9 7.1.1.2.2.3.4.3zm.2.7c-.2 0-.4-.2-.3-.4.1-1 .6-1.7 1.1-2.5.3-.4.5-.8.7-1.2.1-.2.3-.2.4-.2.2.1.2.3.2.4-.2.5-.5.9-.8 1.3-.5.7-.9 1.3-1 2.1 0 .4-.1.5-.3.5z"></path>
    <path clip-rule="evenodd" d="m29.9 21.7c-1.8-.9-3.1-2.2-2-4.3 1-1.9 2.9-1.7 4.7-.8zm64.9-1.8c1.8-.9 3.1-2.2 2-4.3-1-1.9-2.9-1.7-4.7-.8z" fill-rule="evenodd"></path>
    <path clip-rule="evenodd" d="m107.1 68.2c-.2 3.5-3.7 1.9-5.3.8-1.5-1.1-2-.2-2.1-2.3-.1-1.4-.2-2.7-.2-4.1 2.3-.2 4.8.3 6.7 1.7 1 .8 2.8 3 .9 3.9" fill="#f6d2a2" fill-rule="evenodd"></path>
    <path d="m105.3 70.7c-1.5 0-3.2-1.1-3.7-1.4s-.8-.5-1.1-.6c-.8-.3-1-.5-1.1-2 0-.3 0-.6-.1-.9-.1-1-.2-2.1-.1-3.2v-.3h1.3c2.2 0 4.3.6 5.9 1.8.7.5 2 1.9 1.9 3.1 0 .4-.2.9-.8 1.2-.2 2-1.5 2.3-2.2 2.3zm-5.5-7.7c0 .9 0 1.9.1 2.8 0 .3 0 .6.1.9.1 1.2.2 1.2.7 1.4.3.1.7.3 1.3.6.9.6 2.3 1.3 3.3 1.3.6 0 1.4-.2 1.5-1.8v-.2l.2-.1c.4-.2.6-.4.6-.8.1-.8-.9-2-1.6-2.5-1.5-1.1-3.5-1.7-5.5-1.7-.2.1-.4.1-.7.1z"></path>
    <path clip-rule="evenodd" d="m107.1 68.2c-.5-.2-1.1-.3-1.4-.8" fill="#c6b198" fill-rule="evenodd"></path>
    <path d="m107.1 68.6h-.1l-.2-.1c-.5-.2-1-.3-1.3-.8-.1-.1-.1-.4.1-.5.1-.1.4-.1.5.1.2.3.6.4 1 .6.1 0 .2.1.2.1.2.1.3.3.2.4s-.3.2-.4.2z"></path>
    <path clip-rule="evenodd" d="m62.8 4c13.6 0 26.3 1.9 33 15 6 14.6 3.8 30.4 4.8 45.9.8 13.3 2.5 28.6-3.6 40.9-6.5 12.9-22.7 16.2-36 15.7-10.5-.4-23.1-3.8-29.1-13.4-6.9-11.2-3.7-27.9-3.2-40.4.6-14.8-4-29.7.9-44.1 4.9-15.1 18.5-18.5 33.2-19.6" fill="#6ad7e5" fill-rule="evenodd"></path>
    <path d="m63.3 121.9h-2.5c-4.1-.1-10.3-.8-16.4-3.3-5.9-2.4-10.2-5.8-13-10.3-5.6-9.1-4.6-21.6-3.7-32.7.2-2.8.4-5.4.5-7.9.2-5.2-.2-10.6-.7-15.7-.8-9.4-1.6-19.1 1.5-28.5 2.4-7 6.7-12 13.2-15.2 5.1-2.5 11.4-3.9 20.4-4.6 13.4-.1 26.7 1.8 33.4 15.1 4.4 10.7 4.4 22.2 4.5 33.3 0 4.2 0 8.5.3 12.7.1 1.3.2 2.6.2 3.9.8 12.2 1.7 26-3.9 37.2-2.8 5.7-7.7 9.9-14.4 12.6-5.4 2.2-12.2 3.4-19.4 3.4zm-.5-117.6c-14.1 1.1-27.9 4.2-33 19.4-3.1 9.3-2.3 18.9-1.5 28.2.4 5.2.9 10.5.7 15.8-.1 2.5-.3 5.1-.5 7.9-.9 11-1.9 23.4 3.6 32.3 2.3 3.7 9.7 12.5 28.8 13.2h2.5c22.1 0 30.3-9.8 33.3-15.6 5.5-11 4.6-24.8 3.9-36.9-.1-1.3-.2-2.6-.2-3.9-.2-4.2-.3-8.5-.3-12.7-.1-11-.1-22.5-4.4-33.1-3-5.9-7.5-9.9-13.7-12.2-6.4-2.1-13.6-2.4-19.2-2.4z"></path>
    <path clip-rule="evenodd" d="m65.2 22.2c2.4 14.2 25.6 10.4 22.3-3.9-3-12.8-23.1-9.2-22.3 3.9" fill="#fff" fill-rule="evenodd"></path>
    <path d="m76.2 31.5c-4.5 0-10.2-2.4-11.4-9.2-.2-3.2.8-6.1 2.9-8.3 2.3-2.5 5.8-3.9 9.4-3.9 4.2 0 9.2 2.2 10.6 8.3.8 3.4.2 6.4-1.7 8.8-2.1 2.6-5.8 4.3-9.8 4.3zm-10.7-9.3c.5 2.8 1.8 5 3.9 6.6 1.8 1.4 4.3 2.1 6.8 2.1 3.7 0 7.3-1.6 9.3-4.1 1.8-2.2 2.3-5.1 1.6-8.3-1.3-5.7-6-7.7-10-7.7-3.4 0-6.7 1.4-8.9 3.7-1.9 2-2.9 4.7-2.7 7.7z"></path>
    <path clip-rule="evenodd" d="m37.5 24.5c3.2 12.3 22.9 9.2 22.2-3.2-.9-14.8-25.3-12-22.2 3.2" fill="#fff" fill-rule="evenodd"></path>
    <path d="m48 32.7c-4.3 0-9.3-2.1-10.9-8.1-.7-3.5 0-6.7 2-9.1 2.2-2.7 5.8-4.3 9.7-4.3 5.2 0 10.7 3.1 11.1 10.1.2 2.9-.7 5.5-2.7 7.6-2.1 2.3-5.6 3.8-9.2 3.8zm.8-20.8c-3.7 0-7.1 1.5-9.2 4-1.9 2.3-2.5 5.2-1.8 8.5 1.4 5.6 6.2 7.6 10.2 7.6 3.4 0 6.7-1.3 8.8-3.6 1.8-1.9 2.7-4.4 2.5-7.1-.2-4.3-3.1-9.4-10.5-9.4z"></path>
    <path clip-rule="evenodd" d="m68 39.2c0 1.8.4 3.9.1 5.9-.5.9-1.4 1-2.2 1.3-1.1-.2-2-.9-2.5-1.9-.3-2.2.1-4.4.2-6.6z" fill="#fff" fill-rule="evenodd"></path>
    <path d="m65.9 46.8c-1.3-.2-2.3-1-2.8-2.1-.2-1.6-.1-3.1 0-4.6.1-.7.1-1.4.1-2.1v-.4l5.1 1.6v.2c0 .6.1 1.2.1 1.9.1 1.3.2 2.7 0 4v.1c-.4.8-1.1 1-1.8 1.3-.2-.1-.4 0-.7.1zm-2.2-2.4c.4.9 1.2 1.5 2.1 1.7.2-.1.4-.1.5-.2.6-.2 1.1-.4 1.4-.9.2-1.2.1-2.5 0-3.8 0-.6-.1-1.2-.1-1.7l-3.8-1.2c0 .6-.1 1.2-.1 1.7-.1 1.6-.2 3 0 4.4z"></path>
    <g clip-rule="evenodd" fill-rule="evenodd">
      <path d="m46.3 22.5c0 2-1.5 3.6-3.3 3.6s-3.3-1.6-3.3-3.6 1.5-3.6 3.3-3.6 3.3 1.6 3.3 3.6"></path>
      <path d="m45.2 23.3c0 .5-.4.9-.8.9s-.8-.4-.8-.9.4-.9.8-.9c.5 0 .8.4.8.9" fill="#fff"></path>
      <path d="m74.2 21.6c0 2-1.5 3.6-3.3 3.6s-3.3-1.6-3.3-3.6 1.5-3.6 3.3-3.6 3.3 1.6 3.3 3.6"></path>
      <path d="m73.2 22.4c0 .5-.3.9-.8.9-.4 0-.8-.4-.8-.9s.3-.9.8-.9c.4 0 .8.4.8.9m-14.8 16.6c-1.5 3.5.8 10.6 4.8 5.4-.3-2.2.1-4.4.2-6.6z" fill="#fff"></path>
    </g>
    <path d="m60.5 46.6c-.7 0-1.4-.4-1.9-1.2-1.1-1.6-1.3-4.6-.5-6.5l.1-.2 5.5-1.4v.4l-.1 2.2c-.1 1.5-.2 2.9 0 4.4v.1l-.1.1c-1 1.4-2 2.1-3 2.1zm-1.8-7.3c-.6 1.7-.4 4.4.5 5.7.4.6.8.9 1.3.9.7 0 1.5-.6 2.3-1.6-.2-1.5-.1-3 .1-4.4l.1-1.7z"></path>
    <path clip-rule="evenodd" d="m58.9 32.2c-2.7.2-4.9 3.5-3.5 6 1.9 3.4 6-.3 8.6 0 3 .1 5.4 3.2 7.8.6 2.7-2.9-1.2-5.7-4.1-7z" fill="#f6d2a2" fill-rule="evenodd"></path>
    <path d="m69.7 40.2c-.9 0-1.8-.4-2.7-.8s-1.9-.8-3-.8h-.3c-.8 0-1.7.3-2.7.7-1.1.4-2.2.7-3.2.7-1.2 0-2.1-.5-2.7-1.6-.7-1.2-.6-2.6.1-3.9.8-1.5 2.2-2.4 3.7-2.6l8.9-.4h.1c2.2.9 4.7 2.6 5.2 4.6.2 1-.1 2-.9 2.9s-1.6 1.2-2.5 1.2zm-5.6-2.2c1.1 0 2.2.5 3.2.9.9.4 1.7.7 2.5.7.7 0 1.3-.3 1.9-.9.7-.7.9-1.5.8-2.3-.4-1.7-2.8-3.3-4.7-4.1l-8.7.4c-1.3.1-2.5 1-3.2 2.2-.6 1.1-.6 2.3-.1 3.3.5.9 1.1 1.3 2.1 1.3.9 0 1.9-.4 2.9-.7 1.1-.4 2-.7 3-.7 0-.2.1-.2.3-.1z" fill="#231f20"></path>
    <path clip-rule="evenodd" d="m58.6 32.1c-.2-4.7 8.8-5.3 9.8-1.4 1.1 4-9.4 4.9-9.8 1.4" fill-rule="evenodd"></path>
  </symbol>
  <symbol xmlns="http://www.w3.org/2000/svg" viewBox="0 0 32 32" id="html">
    <path d="M4.46 28.802L1.892.001h28.216l-2.57 28.797L15.982 32z" fill="#e44d26"></path>
    <path d="M25.337 26.964l2.197-24.608H16v27.197z" fill="#f16529"></path>
    <path d="M15.988 5.888H7.142l.953 10.682H16v-3.532h-4.674l-.323-3.617H16V5.888zM16 22.2l-.015.004-3.934-1.062-.25-2.817H8.253l.495 5.546 7.236 2 .016-.005z" fill="#ebebeb"></path>
    <path d="M15.988 16.57h4.35l-.4 4.58-3.94 1.063v3.675l7.242-2.007.97-10.845H16zm8.764-9.734l.084-.948h-8.85V9.42h8.532l.07-.794z" fill="#fff"></path>
  </symbol>
  <symbol xmlns="http://www.w3.org/2000/svg" viewBox="0 0 32 32" id="java">
    <path d="M11.622 24.74s-1.23.748.855.962c2.51.32 3.847.267 6.625-.267a10.02 10.02 0 0 0 1.763.855c-6.25 2.672-14.16-.16-9.244-1.55zm-.8-3.473s-1.336 1.015.748 1.23c2.725.267 4.862.32 8.55-.427a3.26 3.26 0 0 0 1.282.801c-7.534 2.244-15.976.214-10.58-1.603zm14.747 6.09s.908.748-1.015 1.336c-3.58 1.07-15.014 1.39-18.22 0-1.122-.48 1.015-1.175 1.7-1.282.695-.16 1.07-.16 1.07-.16-1.23-.855-8.175 1.763-3.526 2.51 12.77 2.084 23.296-.908 19.983-2.404zM12.2 17.633s-5.824 1.39-2.084 1.87c1.603.214 4.755.16 7.694-.053 2.404-.214 4.81-.64 4.81-.64s-.855.374-1.443.748c-5.93 1.55-17.312.855-14.052-.748 2.778-1.336 5.076-1.175 5.076-1.175zm10.42 5.824c5.984-3.1 3.206-6.09 1.282-5.717-.48.107-.695.214-.695.214s.16-.32.534-.427c3.794-1.336 6.786 4.007-1.23 6.09 0 0 .053-.053.107-.16zm-9.83 8.442c5.77.374 14.587-.214 14.8-2.94 0 0-.427 1.07-4.755 1.87-4.916.908-11.007.8-14.587.214 0 0 .748.64 4.542.855z" fill="#4e7896"></path>
    <path d="M18.996.001s3.313 3.366-3.152 8.442c-5.183 4.114-1.175 6.465 0 9.137-3.046-2.725-5.236-5.13-3.74-7.373C14.294 6.893 20.332 5.3 18.996.001zm-1.7 15.335c1.55 1.763-.427 3.366-.427 3.366s3.954-2.03 2.137-4.542c-1.656-2.404-2.94-3.58 4.007-7.587 0 0-10.953 2.725-5.717 8.763z" fill="#f58219"></path>
  </symbol>
  <symbol xmlns="http://www.w3.org/2000/svg" viewBox="0 0 1052 1052" id="javascript">
    <path fill="#f0db4f" d="M0 0h1052v1052H0z"></path>
    <path d="M965.9 801.1c-7.7-48-39-88.3-131.7-125.9-32.2-14.8-68.1-25.399-78.8-49.8-3.8-14.2-4.3-22.2-1.9-30.8 6.9-27.9 40.2-36.6 66.6-28.6 17 5.7 33.1 18.801 42.8 39.7 45.4-29.399 45.3-29.2 77-49.399-11.6-18-17.8-26.301-25.4-34-27.3-30.5-64.5-46.2-124-45-10.3 1.3-20.699 2.699-31 4-29.699 7.5-58 23.1-74.6 44-49.8 56.5-35.6 155.399 25 196.1 59.7 44.8 147.4 55 158.6 96.9 10.9 51.3-37.699 67.899-86 62-35.6-7.4-55.399-25.5-76.8-58.4-39.399 22.8-39.399 22.8-79.899 46.1 9.6 21 19.699 30.5 35.8 48.7 76.2 77.3 266.899 73.5 301.1-43.5 1.399-4.001 10.6-30.801 3.199-72.101zm-394-317.6h-98.4c0 85-.399 169.4-.399 254.4 0 54.1 2.8 103.7-6 118.9-14.4 29.899-51.7 26.2-68.7 20.399-17.3-8.5-26.1-20.6-36.3-37.699-2.8-4.9-4.9-8.7-5.601-9-26.699 16.3-53.3 32.699-80 49 13.301 27.3 32.9 51 58 66.399 37.5 22.5 87.9 29.4 140.601 17.3 34.3-10 63.899-30.699 79.399-62.199 22.4-41.3 17.6-91.3 17.4-146.6.5-90.2 0-180.4 0-270.9z" fill="#323330"></path>
  </symbol>
  <symbol xmlns="http://www.w3.org/2000/svg" viewBox="8.738 -5.03622834 17.45992422 39.40619484" id="mongodb">
    <path d="m15.9.087.854 1.604c.192.296.4.558.645.802a22.406 22.406 0 0 1 2.004 2.266c1.447 1.9 2.423 4.01 3.12 6.292.418 1.394.645 2.824.662 4.27.07 4.323-1.412 8.035-4.4 11.12a12.7 12.7 0 0 1 -1.57 1.342c-.296 0-.436-.227-.558-.436a3.589 3.589 0 0 1 -.436-1.255c-.105-.523-.174-1.046-.14-1.586v-.244c-.024-.052-.285-24.052-.181-24.175z" fill="#599636"></path>
    <path d="m15.9.034c-.035-.07-.07-.017-.105.017.017.35-.105.662-.296.96-.21.296-.488.523-.767.767-1.55 1.342-2.77 2.963-3.747 4.776-1.3 2.44-1.97 5.055-2.16 7.808-.087.993.314 4.497.627 5.508.854 2.684 2.388 4.933 4.375 6.885.488.47 1.01.906 1.55 1.325.157 0 .174-.14.21-.244a4.78 4.78 0 0 0 .157-.68l.35-2.614z" fill="#6cac48"></path>
    <path d="m16.754 28.845c.035-.4.227-.732.436-1.063-.21-.087-.366-.26-.488-.453a3.235 3.235 0 0 1 -.26-.575c-.244-.732-.296-1.5-.366-2.248v-.453c-.087.07-.105.662-.105.75a17.37 17.37 0 0 1 -.314 2.353c-.052.314-.087.627-.28.906 0 .035 0 .07.017.122.314.924.4 1.865.453 2.824v.35c0 .418-.017.33.33.47.14.052.296.07.436.174.105 0 .122-.087.122-.157l-.052-.575v-1.604c-.017-.28.035-.558.07-.82z" fill="#c2bfbf"></path>
  </symbol>
  <symbol xmlns="http://www.w3.org/2000/svg" viewBox="0 0 25.6 25.6" id="mysql">
    <path d="M179.076 94.886c-3.568-.1-6.336.268-8.656 1.25-.668.27-1.74.27-1.828 1.116.357.355.4.936.713 1.428.535.893 1.473 2.096 2.32 2.72l2.855 2.053c1.74 1.07 3.703 1.695 5.398 2.766.982.625 1.963 1.428 2.945 2.098.5.357.803.938 1.428 1.16v-.135c-.312-.4-.402-.98-.713-1.428l-1.34-1.293c-1.293-1.74-2.9-3.258-4.64-4.506-1.428-.982-4.55-2.32-5.13-3.97l-.088-.1c.98-.1 2.14-.447 3.078-.715 1.518-.4 2.9-.312 4.46-.713l2.143-.625v-.4c-.803-.803-1.383-1.874-2.23-2.632-2.275-1.963-4.775-3.882-7.363-5.488-1.383-.892-3.168-1.473-4.64-2.23-.537-.268-1.428-.402-1.74-.848-.805-.98-1.25-2.275-1.83-3.436l-3.658-7.763c-.803-1.74-1.295-3.48-2.275-5.086-4.596-7.585-9.594-12.18-17.268-16.687-1.65-.937-3.613-1.34-5.7-1.83l-3.346-.18c-.715-.312-1.428-1.16-2.053-1.562-2.543-1.606-9.102-5.086-10.977-.5-1.205 2.9 1.785 5.755 2.8 7.228.76 1.026 1.74 2.186 2.277 3.346.3.758.4 1.562.713 2.365.713 1.963 1.383 4.15 2.32 5.98.5.937 1.025 1.92 1.65 2.767.357.5.982.714 1.115 1.517-.625.893-.668 2.23-1.025 3.347-1.607 5.042-.982 11.288 1.293 15 .715 1.115 2.4 3.57 4.686 2.632 2.008-.803 1.56-3.346 2.14-5.577.135-.535.045-.892.312-1.25v.1l1.83 3.703c1.383 2.186 3.793 4.462 5.8 5.98 1.07.803 1.918 2.187 3.256 2.677v-.135h-.088c-.268-.4-.67-.58-1.027-.892-.803-.803-1.695-1.785-2.32-2.677-1.873-2.498-3.523-5.265-4.996-8.12-.715-1.383-1.34-2.9-1.918-4.283-.27-.536-.27-1.34-.715-1.606-.67.98-1.65 1.83-2.143 3.034-.848 1.918-.936 4.283-1.248 6.737-.18.045-.1 0-.18.1-1.426-.356-1.918-1.83-2.453-3.078-1.338-3.168-1.562-8.254-.402-11.913.312-.937 1.652-3.882 1.117-4.774-.27-.848-1.16-1.338-1.652-2.008-.58-.848-1.203-1.918-1.605-2.855-1.07-2.5-1.605-5.265-2.766-7.764-.537-1.16-1.473-2.365-2.232-3.435-.848-1.205-1.783-2.053-2.453-3.48-.223-.5-.535-1.294-.178-1.83.088-.357.268-.5.623-.58.58-.5 2.232.134 2.812.4 1.65.67 3.033 1.294 4.416 2.23.625.446 1.295 1.294 2.098 1.518h.938c1.428.312 3.033.1 4.37.5 2.365.76 4.506 1.874 6.426 3.08 5.844 3.703 10.664 8.968 13.92 15.26.535 1.026.758 1.963 1.25 3.034.938 2.187 2.098 4.417 3.033 6.56.938 2.097 1.83 4.24 3.168 5.98.67.937 3.346 1.427 4.55 1.918.893.4 2.275.76 3.08 1.25 1.516.937 3.033 2.008 4.46 3.034.713.534 2.945 1.65 3.078 2.54zm-45.5-38.772a7.09 7.09 0 0 0-1.828.223v.1h.088c.357.714.982 1.205 1.428 1.83l1.027 2.142.088-.1c.625-.446.938-1.16.938-2.23-.268-.312-.312-.625-.535-.937-.268-.446-.848-.67-1.206-1.026z" transform="matrix(.390229 0 0 .38781 -46.300037 -16.856717)" fill-rule="evenodd" fill="#00678c"></path>
  </symbol>
  <symbol xmlns="http://www.w3.org/2000/svg" preserveAspectRatio="xMidYMid" fill="#8cc84b" viewBox="0 0 32 32" id="nodejs">
    <path d="M14.656.427c.8-.453 1.82-.455 2.6 0L29.2 7.16c.747.42 1.247 1.253 1.24 2.114v13.5c.005.897-.544 1.748-1.332 2.16l-11.88 6.702a2.6 2.6 0 0 1-2.639-.073l-3.565-2.06c-.243-.145-.516-.26-.688-.495.152-.204.422-.23.642-.32.496-.158.95-.4 1.406-.656.115-.08.256-.05.366.022l3.04 1.758c.217.125.437-.04.623-.145l11.665-6.583c.144-.07.224-.222.212-.38V9.334c.016-.18-.087-.344-.25-.417L16.19 2.244a.41.41 0 0 0-.465-.001L3.892 8.93c-.16.073-.27.235-.25.415v13.37c-.014.158.07.307.215.375l3.162 1.785c.594.32 1.323.5 1.977.265a1.5 1.5 0 0 0 .971-1.409l.003-13.29c-.014-.197.172-.36.363-.34h1.52c.2-.005.357.207.33.405L12.18 23.88c.001 1.188-.487 2.48-1.586 3.063-1.354.7-3.028.553-4.366-.12l-3.4-1.88c-.8-.4-1.337-1.264-1.332-2.16v-13.5a2.46 2.46 0 0 1 1.282-2.141L14.656.427zM18.1 9.785c1.727-.1 3.576-.066 5.13.785 1.203.652 1.87 2.02 1.892 3.358-.034.18-.222.28-.394.267-.5-.001-1.002.007-1.504-.003-.213.008-.336-.188-.363-.376-.144-.64-.493-1.273-1.095-1.582-.924-.463-1.996-.44-3.004-.43-.736.04-1.527.103-2.15.535-.48.328-.624 1-.453 1.522.16.383.603.506.964.62 2.082.544 4.287.5 6.33 1.207.845.292 1.672.86 1.962 1.745.378 1.186.213 2.604-.63 3.556-.684.784-1.68 1.2-2.675 1.442-1.323.295-2.695.302-4.038.17-1.263-.144-2.577-.476-3.552-1.336-.834-.724-1.24-1.852-1.2-2.94.01-.184.193-.312.37-.297h1.5c.202-.014.35.16.36.35.093.6.322 1.25.854 1.6 1.026.662 2.313.616 3.487.635.973-.043 2.065-.056 2.86-.7.42-.367.543-.98.43-1.508-.123-.446-.6-.653-1-.8-2.055-.65-4.285-.414-6.32-1.15-.826-.292-1.625-.844-1.942-1.693-.443-1.2-.24-2.687.693-3.607.9-.915 2.22-1.268 3.47-1.394z"></path>
  </symbol>
  <symbol xmlns="http://www.w3.org/2000/svg" xmlns:xlink="http://www.w3.org/1999/xlink" viewBox="0 0 48 48" id="opencv">
    <defs>
      <path d="M-69.65 120.638a139.301 139.301 120 1 1 139.301 0L27.71 47.993a55.418 55.418 120 1 0-55.418 0z" id="A"></path>
    </defs>
    <g transform="matrix(1.275322 0 0 1.275322 -38.047246 -14.965624)">
      <use transform="matrix(.063405 0 0 .063405 29.66229 12.95855)" y="140" x="298" xlink:href="#A" fill="#ff0101"></use>
      <use transform="matrix(-.063405 0 0 -.063405 87.614835 65.58504)" y="415" x="457" xlink:href="#A" fill="#0101ff"></use>
      <use transform="matrix(-.031703 -.054911 .054911 -.031703 20.379704 60.225737)" y="415" x="142" xlink:href="#A" fill="#01ff01"></use>
    </g>
  </symbol>
  <symbol xmlns="http://www.w3.org/2000/svg" viewBox="0 0 48 48" id="python">
    <path fill="#0277BD" d="M24.047,5c-1.555,0.005-2.633,0.142-3.936,0.367c-3.848,0.67-4.549,2.077-4.549,4.67V14h9v2H15.22h-4.35c-2.636,0-4.943,1.242-5.674,4.219c-0.826,3.417-0.863,5.557,0,9.125C5.851,32.005,7.294,34,9.931,34h3.632v-5.104c0-2.966,2.686-5.896,5.764-5.896h7.236c2.523,0,5-1.862,5-4.377v-8.586c0-2.439-1.759-4.263-4.218-4.672C27.406,5.359,25.589,4.994,24.047,5z M19.063,9c0.821,0,1.5,0.677,1.5,1.502c0,0.833-0.679,1.498-1.5,1.498c-0.837,0-1.5-0.664-1.5-1.498C17.563,9.68,18.226,9,19.063,9z"></path>
    <path fill="#FFC107" d="M23.078,43c1.555-0.005,2.633-0.142,3.936-0.367c3.848-0.67,4.549-2.077,4.549-4.67V34h-9v-2h9.343h4.35c2.636,0,4.943-1.242,5.674-4.219c0.826-3.417,0.863-5.557,0-9.125C41.274,15.995,39.831,14,37.194,14h-3.632v5.104c0,2.966-2.686,5.896-5.764,5.896h-7.236c-2.523,0-5,1.862-5,4.377v8.586c0,2.439,1.759,4.263,4.218,4.672C19.719,42.641,21.536,43.006,23.078,43z M28.063,39c-0.821,0-1.5-0.677-1.5-1.502c0-0.833,0.679-1.498,1.5-1.498c0.837,0,1.5,0.664,1.5,1.498C29.563,38.32,28.899,39,28.063,39z"></path>
  </symbol>
  <symbol xmlns="http://www.w3.org/2000/svg" viewBox="0 0 64 64" id="pytorch">
    <g transform="matrix(2.21262 0 0 2.21262 -39.453867 -1.770085)" fill="#ee4c2c">
      <path d="M40.8 9.3l-2.1 2.1c3.5 3.5 3.5 9.2 0 12.7s-9.2 3.5-12.7 0-3.5-9.2 0-12.7l5.6-5.6.7-.8V.8l-8.5 8.5a11.89 11.89 0 0 0 0 16.9 11.89 11.89 0 0 0 16.9 0c4.8-4.7 4.8-12.3.1-16.9z"></path>
      <circle r="1.6" cy="7.1" cx="36.6"></circle>
    </g>
  </symbol>
  <symbol xmlns="http://www.w3.org/2000/svg" viewBox="175.7 78 490.6 436.9" id="react">
    <g fill="#61dafb">
      <path d="m666.3 296.5c0-32.5-40.7-63.3-103.1-82.4 14.4-63.6 8-114.2-20.2-130.4-6.5-3.8-14.1-5.6-22.4-5.6v22.3c4.6 0 8.3.9 11.4 2.6 13.6 7.8 19.5 37.5 14.9 75.7-1.1 9.4-2.9 19.3-5.1 29.4-19.6-4.8-41-8.5-63.5-10.9-13.5-18.5-27.5-35.3-41.6-50 32.6-30.3 63.2-46.9 84-46.9v-22.3c-27.5 0-63.5 19.6-99.9 53.6-36.4-33.8-72.4-53.2-99.9-53.2v22.3c20.7 0 51.4 16.5 84 46.6-14 14.7-28 31.4-41.3 49.9-22.6 2.4-44 6.1-63.6 11-2.3-10-4-19.7-5.2-29-4.7-38.2 1.1-67.9 14.6-75.8 3-1.8 6.9-2.6 11.5-2.6v-22.3c-8.4 0-16 1.8-22.6 5.6-28.1 16.2-34.4 66.7-19.9 130.1-62.2 19.2-102.7 49.9-102.7 82.3 0 32.5 40.7 63.3 103.1 82.4-14.4 63.6-8 114.2 20.2 130.4 6.5 3.8 14.1 5.6 22.5 5.6 27.5 0 63.5-19.6 99.9-53.6 36.4 33.8 72.4 53.2 99.9 53.2 8.4 0 16-1.8 22.6-5.6 28.1-16.2 34.4-66.7 19.9-130.1 62-19.1 102.5-49.9 102.5-82.3zm-130.2-66.7c-3.7 12.9-8.3 26.2-13.5 39.5-4.1-8-8.4-16-13.1-24-4.6-8-9.5-15.8-14.4-23.4 14.2 2.1 27.9 4.7 41 7.9zm-45.8 106.5c-7.8 13.5-15.8 26.3-24.1 38.2-14.9 1.3-30 2-45.2 2-15.1 0-30.2-.7-45-1.9-8.3-11.9-16.4-24.6-24.2-38-7.6-13.1-14.5-26.4-20.8-39.8 6.2-13.4 13.2-26.8 20.7-39.9 7.8-13.5 15.8-26.3 24.1-38.2 14.9-1.3 30-2 45.2-2 15.1 0 30.2.7 45 1.9 8.3 11.9 16.4 24.6 24.2 38 7.6 13.1 14.5 26.4 20.8 39.8-6.3 13.4-13.2 26.8-20.7 39.9zm32.3-13c5.4 13.4 10 26.8 13.8 39.8-13.1 3.2-26.9 5.9-41.2 8 4.9-7.7 9.8-15.6 14.4-23.7 4.6-8 8.9-16.1 13-24.1zm-101.4 106.7c-9.3-9.6-18.6-20.3-27.8-32 9 .4 18.2.7 27.5.7 9.4 0 18.7-.2 27.8-.7-9 11.7-18.3 22.4-27.5 32zm-74.4-58.9c-14.2-2.1-27.9-4.7-41-7.9 3.7-12.9 8.3-26.2 13.5-39.5 4.1 8 8.4 16 13.1 24s9.5 15.8 14.4 23.4zm73.9-208.1c9.3 9.6 18.6 20.3 27.8 32-9-.4-18.2-.7-27.5-.7-9.4 0-18.7.2-27.8.7 9-11.7 18.3-22.4 27.5-32zm-74 58.9c-4.9 7.7-9.8 15.6-14.4 23.7-4.6 8-8.9 16-13 24-5.4-13.4-10-26.8-13.8-39.8 13.1-3.1 26.9-5.8 41.2-7.9zm-90.5 125.2c-35.4-15.1-58.3-34.9-58.3-50.6s22.9-35.6 58.3-50.6c8.6-3.7 18-7 27.7-10.1 5.7 19.6 13.2 40 22.5 60.9-9.2 20.8-16.6 41.1-22.2 60.6-9.9-3.1-19.3-6.5-28-10.2zm53.8 142.9c-13.6-7.8-19.5-37.5-14.9-75.7 1.1-9.4 2.9-19.3 5.1-29.4 19.6 4.8 41 8.5 63.5 10.9 13.5 18.5 27.5 35.3 41.6 50-32.6 30.3-63.2 46.9-84 46.9-4.5-.1-8.3-1-11.3-2.7zm237.2-76.2c4.7 38.2-1.1 67.9-14.6 75.8-3 1.8-6.9 2.6-11.5 2.6-20.7 0-51.4-16.5-84-46.6 14-14.7 28-31.4 41.3-49.9 22.6-2.4 44-6.1 63.6-11 2.3 10.1 4.1 19.8 5.2 29.1zm38.5-66.7c-8.6 3.7-18 7-27.7 10.1-5.7-19.6-13.2-40-22.5-60.9 9.2-20.8 16.6-41.1 22.2-60.6 9.9 3.1 19.3 6.5 28.1 10.2 35.4 15.1 58.3 34.9 58.3 50.6-.1 15.7-23 35.6-58.4 50.6z"></path>
      <circle cx="420.9" cy="296.5" r="45.7"></circle>
    </g>
  </symbol>
  <symbol xmlns="http://www.w3.org/2000/svg" preserveAspectRatio="xMidYMid" viewBox="0 0 256 244" id="redux">
    <path d="M177.381 169.733c9.447-.978 16.614-9.122 16.288-18.896-.325-9.773-8.47-17.592-18.243-17.592h-.651c-10.1.326-17.918 8.796-17.592 18.895.326 4.887 2.28 9.122 5.212 12.054-11.076 21.828-28.016 37.791-53.426 51.148-17.266 9.122-35.183 12.38-53.1 10.1-14.66-1.955-26.062-8.47-33.23-19.222-10.424-15.963-11.401-33.23-2.605-50.496 6.19-12.38 15.962-21.502 22.152-26.063-1.303-4.235-3.258-11.402-4.235-16.614-47.237 34.207-42.35 80.468-28.016 102.295 10.75 16.29 32.577 26.389 56.684 26.389 6.515 0 13.03-.652 19.546-2.28 41.699-8.145 73.299-32.905 91.216-69.718zm57.336-40.397c-24.759-28.995-61.245-44.958-102.944-44.958h-5.212c-2.932-5.864-9.122-9.774-15.963-9.774h-.652C99.848 74.93 92.03 83.4 92.355 93.5c.326 9.773 8.47 17.592 18.243 17.592h.651c7.167-.326 13.357-4.887 15.963-11.077h5.864c24.759 0 48.214 7.167 69.39 21.176 16.288 10.751 28.016 24.76 34.531 41.7 5.538 13.683 5.212 27.04-.652 38.443-9.121 17.266-24.432 26.714-44.63 26.714-13.031 0-25.41-3.91-31.926-6.842-3.583 3.258-10.099 8.47-14.66 11.729 14.009 6.515 28.343 10.099 42.025 10.099 31.274 0 54.404-17.267 63.2-34.533 9.447-18.896 8.795-51.474-15.637-79.165zM69.225 175.27c.326 9.774 8.47 17.592 18.243 17.592h.652c10.099-.325 17.917-8.796 17.591-18.895-.325-9.774-8.47-17.592-18.243-17.592h-.651c-.652 0-1.63 0-2.28.325-13.357-22.153-18.895-46.26-16.94-72.323 1.302-19.547 7.818-36.488 19.22-50.497 9.447-12.054 27.69-17.918 40.07-18.243 34.531-.652 49.19 42.351 50.168 59.618 4.235.977 11.402 3.258 16.289 4.887C189.434 27.366 156.857 0 125.584 0c-29.32 0-56.359 21.176-67.11 52.451-14.985 41.7-5.212 81.771 13.031 113.372-1.628 2.28-2.606 5.864-2.28 9.448z" fill="#764ABC"></path>
  </symbol>
  <symbol fill="none" xmlns="http://www.w3.org/2000/svg" viewBox="670.088 32.46226489559854 2224.1720000000005 2666.4877351044024" id="rn">
    <g fill="#61dafb">
      <path d="M2870 1250.22c0-145.34-182.01-283.079-461.07-368.495 64.4-284.424 35.78-510.711-90.34-583.159-29.07-16.994-63.05-25.044-100.17-25.044v99.728c20.57 0 37.12 4.025 50.98 11.627 60.82 34.882 87.21 167.703 66.63 338.536-4.91 42.038-12.96 86.311-22.8 131.479-87.66-21.466-183.36-38.012-283.98-48.745-60.37-82.734-122.98-157.865-186.04-223.604 145.79-135.504 282.64-209.741 375.66-209.741v-99.727c-122.99 0-283.98 87.653-446.76 239.703-162.79-151.156-323.78-237.914-446.76-237.914v99.727c92.57 0 229.86 73.79 375.65 208.399-62.61 65.74-125.22 140.423-184.7 223.157-101.07 10.733-196.77 27.279-284.42 49.192-10.29-44.72-17.89-88.1-23.26-129.69-21.01-170.833 4.92-303.654 65.3-338.983 13.41-8.05 30.85-11.627 51.43-11.627v-99.728c-37.57 0-71.56 8.05-101.07 25.044-125.67 72.447-153.84 298.287-89 581.817C857.119 968.036 676 1105.33 676 1250.22c0 145.35 182.013 283.09 461.07 368.5-64.4 284.43-35.78 510.71 90.34 583.16 29.07 16.99 63.05 25.04 100.62 25.04 122.98 0 283.98-87.65 446.76-239.7 162.78 151.16 323.78 237.92 446.76 237.92 37.56 0 71.55-8.05 101.07-25.05 125.66-72.45 153.84-298.29 88.99-581.81 277.27-85.42 458.39-223.16 458.39-368.06zm-582.26-298.284c-16.55 57.694-37.12 117.164-60.38 176.644-18.33-35.77-37.56-71.55-58.58-107.33-20.57-35.773-42.49-70.655-64.4-104.643 63.5 9.391 124.77 21.019 183.36 35.329zm-204.83 476.274c-34.88 60.38-70.65 117.62-107.77 170.84-66.64 5.81-134.16 8.94-202.14 8.94-67.53 0-135.06-3.13-201.24-8.5-37.12-53.22-73.35-110.01-108.23-169.94-33.99-58.58-64.84-118.06-93.02-177.98 27.73-59.93 59.03-119.86 92.58-178.44 34.88-60.37 70.65-117.616 107.77-170.834 66.64-5.814 134.16-8.944 202.14-8.944 67.53 0 135.06 3.13 201.24 8.497 37.12 53.218 73.35 110.011 108.23 169.941 33.99 58.58 64.84 118.06 93.02 177.99-28.18 59.92-59.03 119.85-92.58 178.43zm144.45-58.13a1918.154 1918.154 0 0 1 61.72 177.98c-58.59 14.31-120.3 26.39-184.25 35.78 21.91-34.43 43.82-69.76 64.4-105.99 20.57-35.77 39.8-72 58.13-107.77zm-453.47 477.17c-41.59-42.94-83.18-90.79-124.32-143.11 40.25 1.79 81.39 3.13 122.98 3.13 42.04 0 83.63-.89 124.33-3.13a1746.499 1746.499 0 0 1-122.99 143.11zm-332.72-263.41c-63.5-9.39-124.77-21.02-183.35-35.33 16.54-57.69 37.12-117.17 60.37-176.65 18.34 35.78 37.57 71.56 58.58 107.33 21.02 35.78 42.49 70.66 64.4 104.65zm330.49-930.638c41.59 42.931 83.18 90.783 124.32 143.106-40.25-1.789-81.39-3.13-122.98-3.13-42.04 0-83.63.894-124.32 3.13a1746.3 1746.3 0 0 1 122.98-143.106zm-330.94 263.405c-21.91 34.435-43.82 69.764-64.39 105.983-20.57 35.78-39.8 71.56-58.14 107.33a1914.757 1914.757 0 0 1-61.71-177.984c58.58-13.863 120.29-25.938 184.24-35.329zM1036 1476.51c-158.309-67.53-260.72-156.07-260.72-226.29 0-70.21 102.411-159.2 260.72-226.28 38.46-16.55 80.5-31.308 123.88-45.171 25.49 87.651 59.03 178.881 100.62 272.351-41.14 93.02-74.24 183.8-99.28 271.01-44.27-13.87-86.31-29.07-125.22-45.62zm240.6 639.06c-60.82-34.88-87.21-167.7-66.63-338.54 4.92-42.03 12.96-86.31 22.8-131.48 87.66 21.47 183.36 38.02 283.98 48.75 60.37 82.73 122.98 157.86 186.04 223.6-145.79 135.51-282.64 209.74-375.66 209.74-20.12-.44-37.11-4.47-50.53-12.07zm1060.78-340.77c21.01 170.83-4.92 303.65-65.3 338.98-13.41 8.05-30.85 11.63-51.43 11.63-92.57 0-229.86-73.79-375.65-208.4 62.61-65.74 125.22-140.42 184.7-223.16 101.07-10.73 196.77-27.28 284.42-49.19 10.29 45.17 18.34 88.55 23.26 130.14zm172.17-298.29c-38.46 16.55-80.5 31.31-123.88 45.17-25.49-87.65-59.03-178.88-100.62-272.35 41.15-93.02 74.24-183.8 99.28-271.009 44.28 13.864 86.31 29.069 125.67 45.619 158.31 67.52 260.72 156.07 260.72 226.28-.45 70.22-102.86 159.21-261.17 226.29z"></path>
      <path d="M1772.55 1454.6c112.88 0 204.38-91.5 204.38-204.38 0-112.87-91.5-204.37-204.38-204.37-112.87 0-204.37 91.5-204.37 204.37 0 112.88 91.5 204.38 204.37 204.38zM775.625 2578.81H708.16V2695h-38.072v-287.22h95.082c32.351 0 57.207 7.37 74.566 22.1 17.491 14.72 26.237 36.16 26.237 64.3 0 17.89-4.866 33.47-14.598 46.76-9.6 13.28-23.014 23.21-40.242 29.78l67.465 121.91v2.37h-40.637zm-67.465-30.97h58.194c18.806 0 33.732-4.87 44.779-14.6 11.178-9.73 16.767-22.75 16.767-39.06 0-17.75-5.326-31.36-15.978-40.83-10.521-9.47-25.776-14.27-45.766-14.4H708.16zm293.93 151.11c-28.936 0-52.477-9.47-70.625-28.41-18.149-19.07-27.223-44.52-27.223-76.34v-6.71c0-21.17 4.011-40.04 12.033-56.61 8.154-16.71 19.464-29.73 33.93-39.06 14.598-9.47 30.379-14.21 47.344-14.21 27.751 0 49.321 9.14 64.701 27.42 15.39 18.28 23.08 44.45 23.08 78.51v15.19H940.736c.526 21.05 6.642 38.08 18.346 51.1 11.836 12.88 26.828 19.33 44.978 19.33 12.89 0 23.8-2.63 32.74-7.89 8.95-5.26 16.77-12.23 23.48-20.91l22.29 17.36c-17.89 27.48-44.71 41.23-80.48 41.23zm-4.541-191.35c-14.729 0-27.091 5.39-37.086 16.17-9.995 10.66-16.176 25.65-18.543 44.98h106.92v-2.76c-1.05-18.54-6.05-32.88-14.99-43.01-8.95-10.25-21.05-15.38-36.301-15.38zM1259.52 2695c-2.11-4.21-3.82-11.7-5.13-22.49-16.97 17.62-37.22 26.44-60.76 26.44-21.04 0-38.33-5.92-51.88-17.76-13.41-11.97-20.12-27.09-20.12-45.37 0-22.22 8.42-39.45 25.25-51.68 16.96-12.37 40.77-18.55 71.41-18.55h35.51v-16.76c0-12.76-3.82-22.89-11.44-30.38-7.63-7.63-18.88-11.44-33.74-11.44-13.02 0-23.93 3.28-32.74 9.86-8.81 6.57-13.22 14.53-13.22 23.87h-36.69c0-10.65 3.75-20.91 11.24-30.78 7.63-9.99 17.89-17.88 30.78-23.67 13.02-5.78 27.28-8.68 42.8-8.68 24.6 0 43.86 6.18 57.8 18.55 13.94 12.23 21.17 29.13 21.7 50.69v98.24c0 19.6 2.5 35.18 7.5 46.75v3.16zm-60.56-27.81c11.44 0 22.29-2.96 32.55-8.88 10.25-5.92 17.68-13.61 22.29-23.08v-43.79h-28.61c-44.71 0-67.07 13.08-67.07 39.25 0 11.44 3.82 20.39 11.44 26.83 7.63 6.44 17.43 9.67 29.4 9.67zm234.15 1.97c13.02 0 24.4-3.95 34.13-11.84s15.12-17.75 16.17-29.59h34.53c-.66 12.23-4.87 23.87-12.63 34.92s-18.15 19.86-31.17 26.43c-12.89 6.58-26.56 9.87-41.03 9.87-29.06 0-52.21-9.67-69.44-29-17.09-19.47-25.64-46.03-25.64-79.7v-6.11c0-20.78 3.81-39.26 11.44-55.43 7.63-16.18 18.54-28.74 32.75-37.68 14.33-8.95 31.23-13.42 50.69-13.42 23.94 0 43.8 7.17 59.58 21.51 15.91 14.33 24.39 32.94 25.45 55.82h-34.53c-1.05-13.81-6.31-25.12-15.78-33.93-9.33-8.94-20.91-13.41-34.72-13.41-18.54 0-32.94 6.7-43.2 20.12-10.12 13.28-15.19 32.55-15.19 57.8v6.9c0 24.59 5.07 43.53 15.19 56.81 10.13 13.29 24.6 19.93 43.4 19.93zm175.37-239.28v51.68h39.85v28.21h-39.85v132.36c0 8.55 1.78 14.99 5.33 19.33 3.55 4.21 9.6 6.32 18.15 6.32 4.2 0 9.99-.79 17.35-2.37V2695c-9.6 2.63-18.93 3.95-28.01 3.95-16.3 0-28.6-4.94-36.89-14.8-8.28-9.86-12.42-23.87-12.42-42.02v-132.36h-38.87v-28.21h38.87v-51.68zM2017.81 2695h-38.08l-144.59-221.33V2695h-38.07v-287.22h38.07l144.99 222.32v-222.32h37.68zm193.32 0c-2.11-4.21-3.82-11.7-5.13-22.49-16.97 17.62-37.22 26.44-60.76 26.44-21.04 0-38.34-5.92-51.88-17.76-13.41-11.97-20.12-27.09-20.12-45.37 0-22.22 8.41-39.45 25.25-51.68 16.96-12.37 40.77-18.55 71.41-18.55h35.51v-16.76c0-12.76-3.82-22.89-11.45-30.38-7.62-7.63-18.87-11.44-33.73-11.44-13.02 0-23.93 3.28-32.74 9.86-8.81 6.57-13.22 14.53-13.22 23.87h-36.69c0-10.65 3.75-20.91 11.24-30.78 7.63-9.99 17.89-17.88 30.78-23.67 13.02-5.78 27.28-8.68 42.8-8.68 24.59 0 43.86 6.18 57.8 18.55 13.94 12.23 21.17 29.13 21.7 50.69v98.24c0 19.6 2.5 35.18 7.5 46.75v3.16zm-60.56-27.81c11.44 0 22.29-2.96 32.55-8.88 10.25-5.92 17.68-13.61 22.29-23.08v-43.79h-28.61c-44.71 0-67.07 13.08-67.07 39.25 0 11.44 3.82 20.39 11.44 26.83 7.63 6.44 17.43 9.67 29.4 9.67zm198.05-237.31v51.68h39.85v28.21h-39.85v132.36c0 8.55 1.78 14.99 5.33 19.33 3.55 4.21 9.6 6.32 18.15 6.32 4.2 0 9.99-.79 17.36-2.37V2695c-9.61 2.63-18.94 3.95-28.02 3.95-16.3 0-28.6-4.94-36.89-14.8-8.28-9.86-12.42-23.87-12.42-42.02v-132.36h-38.86v-28.21h38.86v-51.68zM2470.93 2695h-36.5v-213.44h36.5zm-39.46-270.06c0-5.91 1.78-10.91 5.33-14.99 3.68-4.08 9.07-6.11 16.17-6.11 7.11 0 12.5 2.03 16.18 6.11s5.52 9.08 5.52 14.99c0 5.92-1.84 10.85-5.52 14.8-3.68 3.94-9.07 5.92-16.18 5.92-7.1 0-12.49-1.98-16.17-5.92-3.55-3.95-5.33-8.88-5.33-14.8zm168.47 220.55l52.86-163.93h37.29L2613.55 2695h-27.82l-77.32-213.44h37.28zm211.07 53.46c-28.93 0-52.47-9.47-70.62-28.41-18.15-19.07-27.22-44.52-27.22-76.34v-6.71c0-21.17 4.01-40.04 12.03-56.61 8.15-16.71 19.46-29.73 33.93-39.06 14.6-9.47 30.38-14.21 47.34-14.21 27.75 0 49.32 9.14 64.71 27.42 15.38 18.28 23.08 44.45 23.08 78.51v15.19h-144.6c.53 21.05 6.64 38.08 18.35 51.1 11.83 12.88 26.83 19.33 44.97 19.33 12.89 0 23.81-2.63 32.75-7.89s16.77-12.23 23.48-20.91l22.29 17.36c-17.89 27.48-44.72 41.23-80.49 41.23zm-4.54-191.35c-14.72 0-27.09 5.39-37.08 16.17-10 10.66-16.18 25.65-18.54 44.98h106.91v-2.76c-1.05-18.54-6.05-32.88-14.99-43.01-8.94-10.25-21.04-15.38-36.3-15.38z"></path>
    </g>
  </symbol>
  <symbol fill="none" xmlns="http://www.w3.org/2000/svg" viewBox="0 0 128 128" id="typescript">
    <rect fill="#3178c6" height="128" rx="6" width="128"></rect>
    <path clip-rule="evenodd" d="m74.2622 99.468v14.026c2.2724 1.168 4.9598 2.045 8.0625 2.629 3.1027.585 6.3728.877 9.8105.877 3.3503 0 6.533-.321 9.5478-.964 3.016-.643 5.659-1.702 7.932-3.178 2.272-1.476 4.071-3.404 5.397-5.786 1.325-2.381 1.988-5.325 1.988-8.8313 0-2.5421-.379-4.7701-1.136-6.6841-.758-1.9139-1.85-3.6159-3.278-5.1062-1.427-1.4902-3.139-2.827-5.134-4.0104-1.996-1.1834-4.246-2.3011-6.752-3.353-1.8352-.7597-3.4812-1.4975-4.9378-2.2134-1.4567-.7159-2.6948-1.4464-3.7144-2.1915-1.0197-.7452-1.8063-1.5341-2.3598-2.3669-.5535-.8327-.8303-1.7751-.8303-2.827 0-.9643.2476-1.8336.7429-2.6079s1.1945-1.4391 2.0976-1.9943c.9031-.5551 2.0101-.9861 3.3211-1.2929 1.311-.3069 2.7676-.4603 4.3699-.4603 1.1658 0 2.3958.0877 3.6928.263 1.296.1753 2.6.4456 3.911.8109 1.311.3652 2.585.8254 3.824 1.3806 1.238.5552 2.381 1.198 3.43 1.9285v-13.1051c-2.127-.8182-4.45-1.4245-6.97-1.819s-5.411-.5917-8.6744-.5917c-3.3211 0-6.4674.3579-9.439 1.0738-2.9715.7159-5.5862 1.8336-7.844 3.353-2.2578 1.5195-4.0422 3.4553-5.3531 5.8075-1.311 2.3522-1.9665 5.1646-1.9665 8.4373 0 4.1785 1.2017 7.7433 3.6052 10.6945 2.4035 2.9513 6.0523 5.4496 10.9466 7.495 1.9228.7889 3.7145 1.5633 5.375 2.323 1.6606.7597 3.0954 1.5486 4.3044 2.3668s2.1628 1.7094 2.8618 2.6736c.7.9643 1.049 2.06 1.049 3.2873 0 .9062-.218 1.7462-.655 2.5202s-1.1 1.446-1.9885 2.016c-.8886.57-1.9956 1.016-3.3212 1.337-1.3255.321-2.8768.482-4.6539.482-3.0299 0-6.0305-.533-9.0021-1.6-2.9715-1.066-5.7245-2.666-8.2591-4.799zm-23.5596-34.9136h18.2974v-11.5544h-51v11.5544h18.2079v51.4456h14.4947z" fill="#fff" fill-rule="evenodd"></path>
  </symbol>
  <symbol enable-background="new 0 0 2500 2165.1" xmlns="http://www.w3.org/2000/svg" viewBox="0 0 2500 2165.1" id="vue">
    <path d="m1538.7 0-288.7 500-288.7-500h-961.3l1250 2165.1 1250-2165.1z" fill="#4dba87"></path>
    <path d="m1538.7 0-288.7 500-288.7-500h-461.3l750 1299 750-1299z" fill="#435466"></path>
  </symbol>
</svg>